<svg width="25" height="28" viewBox="0 0 25 28" fill="none" xmlns="http://www.w3.org/2000/svg">
<g clip-path="url(#clip0_5561_56)">
<path d="M16.3142 13.7445L24.5685 19.5318V7.71289L16.3142 13.7445Z" fill="#9092B0"/>
<path d="M0.0839539 7.71289V19.5318L8.33832 13.7445L0.0839539 7.71289Z" fill="#9092B0"/>
<path d="M23.038 4.271H1.61398C0.850369 4.271 0.244375 4.90233 0.129604 5.71526L12.326 14.627L24.5224 5.71526C24.4076 4.90233 23.8016 4.271 23.038 4.271Z" fill="#9092B0"/>
<path d="M14.9124 14.7698L12.7471 16.3515C12.6185 16.4448 12.4732 16.4907 12.3263 16.4907C12.1793 16.4907 12.034 16.4448 11.9054 16.3515L9.74007 14.7681L0.132926 21.5074C0.250758 22.3136 0.853691 22.9398 1.61424 22.9398H23.0383C23.7988 22.9398 24.4018 22.3136 24.5196 21.5074L14.9124 14.7698Z" fill="#9092B0"/>
</g>
<defs>
<clipPath id="clip0_5561_56">
<rect width="23" height="26.1543" fill="white" transform="translate(0.0839539 0.0283203)"/>
</clipPath>
</defs>
</svg>
